<svg width="42" height="54" viewBox="0 0 42 54" fill="none" xmlns="http://www.w3.org/2000/svg">
<path d="M41.25 6.75V54H0.75V6.75H14.25C14.25 5.81836 14.4258 4.94824 14.7773 4.13965C15.1289 3.33105 15.6123 2.61035 16.2275 1.97754C16.8428 1.34473 17.5547 0.861328 18.3633 0.527344C19.1719 0.193359 20.0508 0.0175781 21 0C21.9316 0 22.8018 0.175781 23.6104 0.527344C24.4189 0.878906 25.1396 1.3623 25.7725 1.97754C26.4053 2.59277 26.8887 3.30469 27.2227 4.11328C27.5566 4.92187 27.7324 5.80078 27.75 6.75H41.25ZM10.875 10.125V13.5H31.125V10.125H24.375V6.75C24.375 6.27539 24.2871 5.83594 24.1113 5.43164C23.9355 5.02734 23.6982 4.67578 23.3994 4.37695C23.1006 4.07813 22.7402 3.83203 22.3184 3.63867C21.8965 3.44531 21.457 3.35742 21 3.375C20.5254 3.375 20.0859 3.46289 19.6816 3.63867C19.2773 3.81445 18.9258 4.05176 18.627 4.35059C18.3281 4.64941 18.082 5.00977 17.8887 5.43164C17.6953 5.85352 17.6074 6.29297 17.625 6.75V10.125H10.875ZM37.875 10.125H34.5V16.875H7.5V10.125H4.125V50.625H37.875V10.125ZM27.1963 18.958C27.9346 18.958 28.6201 19.0898 29.2529 19.3535C29.8857 19.6172 30.4482 19.9863 30.9404 20.4609C31.4326 20.9355 31.8018 21.4893 32.0479 22.1221C32.2939 22.7549 32.4346 23.4404 32.4697 24.1787C32.4697 24.8643 32.3379 25.5322 32.0742 26.1826C31.8105 26.833 31.4326 27.4043 30.9404 27.8965L17.0713 41.8975L7.63184 43.6904L9.60938 34.4355L23.4785 20.4609C23.9707 19.9688 24.542 19.5996 25.1924 19.3535C25.8428 19.1074 26.5107 18.9756 27.1963 18.958ZM28.541 25.5234C28.9102 25.1191 29.0947 24.6709 29.0947 24.1787C29.0947 23.6338 28.9189 23.1943 28.5674 22.8604C28.2158 22.5264 27.7588 22.3506 27.1963 22.333C26.9502 22.333 26.7129 22.3682 26.4844 22.4385C26.2559 22.5088 26.0537 22.6406 25.8779 22.834L12.7207 36.0967L12.0088 39.4189L15.4102 38.7598L28.541 25.5234Z" fill="black"/>
</svg>
