<svg width="48" height="45" viewBox="0 0 48 45" fill="none" xmlns="http://www.w3.org/2000/svg">
<path d="M8.76451 0C3.90936 0 0 3.63661 0 8.15302V36.4981C0 41.0145 3.90936 44.6511 8.76451 44.6511H25.2795V27.1953H20.3175V20.9107H25.2795V15.5414C25.2795 11.323 28.2113 7.44976 34.965 7.44976C37.6995 7.44976 39.7215 7.69396 39.7215 7.69396L39.5625 13.5628C39.5625 13.5628 37.5003 13.5447 35.25 13.5447C32.8145 13.5447 32.424 14.5885 32.424 16.3214V20.9107H39.756L39.4365 27.1954H32.424V44.6512H39.2355C44.0906 44.6512 48 41.0146 48 36.4981V8.15306C48 3.63665 44.0906 4.46511e-05 39.2355 4.46511e-05H8.76446L8.76451 0Z" fill="white"/>
</svg>
