<svg width="52" height="52" viewBox="0 0 52 52" fill="none" xmlns="http://www.w3.org/2000/svg">
<path fill-rule="evenodd" clip-rule="evenodd" d="M43.0626 46.8H8.93925C7.10264 46.8 5.7464 44.9877 6.43911 43.3211C9.65319 35.6147 17.204 31.2 25.9996 31.2C34.7979 31.2 42.3487 35.6147 45.5628 43.3211C46.2555 44.9877 44.8992 46.8 43.0626 46.8ZM15.3833 15.6C15.3833 9.86436 20.1474 5.19996 25.9996 5.19996C31.8545 5.19996 36.6159 9.86436 36.6159 15.6C36.6159 21.3356 31.8545 26 25.9996 26C20.1474 26 15.3833 21.3356 15.3833 15.6ZM51.8848 45.8535C49.9552 37.1201 43.9199 30.6747 35.9763 27.7497C40.1856 24.4295 42.6406 19.0604 41.7382 13.1818C40.6925 6.36202 34.9014 0.90474 27.9106 0.10914C18.2604 -0.99066 10.0752 6.36736 10.0752 15.6C10.0752 20.514 12.4002 24.8923 16.0256 27.7497C8.07933 30.6747 2.04663 37.1201 0.114462 45.8535C-0.586212 49.0281 2.0254 52 5.34033 52H46.6589C49.9765 52 52.5881 49.0281 51.8848 45.8535Z" fill="white"/>
</svg>
