<svg width="47" height="47" viewBox="0 0 47 47" fill="none" xmlns="http://www.w3.org/2000/svg">
<path d="M32.1031 21.7401C32.3684 23.4935 32.0628 25.2843 31.2297 26.8577C30.3965 28.4311 29.0783 29.707 27.4626 30.5039C25.8468 31.3009 24.0157 31.5783 22.2298 31.2966C20.4439 31.015 18.7941 30.1888 17.515 28.9353C16.2359 27.6819 15.3927 26.0652 15.1053 24.3151C14.8179 22.565 15.101 20.7707 15.9143 19.1874C16.7275 17.604 18.0296 16.3123 19.6352 15.4959C21.2408 14.6795 23.0683 14.38 24.8576 14.64C26.6828 14.9052 28.3725 15.7386 29.6772 17.0172C30.9819 18.2957 31.8324 19.9515 32.1031 21.7401Z" stroke="white" stroke-width="4" stroke-linecap="round" stroke-linejoin="round"/>
<path d="M35.3223 11.4805H35.3443" stroke="white" stroke-width="4" stroke-linecap="round" stroke-linejoin="round"/>
<path d="M34.25 2H12.75C6.81294 2 2 6.71636 2 12.5343V33.6028C2 39.4207 6.81294 44.1371 12.75 44.1371H34.25C40.1871 44.1371 45 39.4207 45 33.6028V12.5343C45 6.71636 40.1871 2 34.25 2Z" stroke="white" stroke-width="4" stroke-linecap="round" stroke-linejoin="round"/>
</svg>
