<svg width="59" height="56" viewBox="0 0 59 56" fill="none" xmlns="http://www.w3.org/2000/svg">
<path d="M39.5 36.6667C39.5 33.9315 31.665 31.7143 22 31.7143M39.5 36.6667C39.5 39.4018 31.665 41.619 22 41.619C12.335 41.619 4.5 39.4018 4.5 36.6667M39.5 36.6667V48.891C39.5 51.7126 31.665 54 22 54C12.335 54 4.5 51.7126 4.5 48.891V36.6667M39.5 36.6667C49.0588 36.6667 57 34.2224 57 31.7143V6.95238M22 31.7143C12.335 31.7143 4.5 33.9315 4.5 36.6667M22 31.7143C10.9543 31.7143 2 29.27 2 26.7619V14.381M22 9.42857C10.9543 9.42857 2 11.6458 2 14.381M2 14.381C2 17.1161 10.9543 19.3333 22 19.3333C22 21.8414 30.1335 24.2857 39.6923 24.2857C49.2511 24.2857 57 21.8414 57 19.3333M57 6.95238C57 4.21726 49.2511 2 39.6923 2C30.1335 2 22.3846 4.21726 22.3846 6.95238M57 6.95238C57 9.68751 49.2511 11.9048 39.6923 11.9048C30.1335 11.9048 22.3846 9.68751 22.3846 6.95238M22.3846 6.95238V32.1253" stroke="black" stroke-width="3"/>
</svg>
