<svg width="43" height="48" viewBox="0 0 43 48" fill="none" xmlns="http://www.w3.org/2000/svg">
<path d="M14.2803 4.484L5.32192 44.484C5.2252 44.9169 5.00161 45.3012 4.68671 45.5759C4.3718 45.8506 3.98366 45.9999 3.584 46C3.43665 45.9997 3.28987 45.9795 3.14684 45.94C2.68631 45.8111 2.29046 45.4834 2.04623 45.0289C1.80201 44.5744 1.72938 44.0302 1.84429 43.516L10.8026 3.516C10.855 3.25597 10.9535 3.01025 11.0922 2.79329C11.2309 2.57633 11.4071 2.39251 11.6103 2.25263C11.8136 2.11275 12.0398 2.01963 12.2758 1.97875C12.5117 1.93786 12.7526 1.95004 12.9843 2.01456C13.216 2.07908 13.4337 2.19464 13.6248 2.35445C13.8159 2.51427 13.9765 2.71511 14.0971 2.94517C14.2176 3.17524 14.2958 3.42988 14.3269 3.69414C14.3581 3.95841 14.3434 4.22695 14.2803 4.484ZM32.1969 3.516C32.1445 3.25597 32.046 3.01025 31.9073 2.79329C31.7686 2.57633 31.5925 2.39251 31.3892 2.25263C31.186 2.11275 30.9597 2.01963 30.7238 1.97875C30.4878 1.93786 30.2469 1.95004 30.0153 2.01456C29.7836 2.07908 29.5658 2.19464 29.3747 2.35445C29.1836 2.51427 29.0231 2.71511 28.9025 2.94517C28.7819 3.17524 28.7038 3.42988 28.6726 3.69414C28.6415 3.95841 28.6579 4.22695 28.7211 4.484L37.6794 44.484C37.7761 44.9169 37.9997 45.3012 38.3146 45.5759C38.6295 45.8506 39.0177 45.9999 39.4173 46C39.5641 45.9996 39.7103 45.9795 39.8527 45.94C40.3136 45.8115 40.7098 45.484 40.9544 45.0294C41.199 44.5749 41.2719 44.0305 41.157 43.516L32.1969 3.516ZM21.5007 2C21.0255 2 20.5698 2.21072 20.2338 2.58579C19.8978 2.96086 19.709 3.46957 19.709 4V12C19.709 12.5304 19.8978 13.0391 20.2338 13.4142C20.5698 13.7893 21.0255 14 21.5007 14C21.9758 14 22.4316 13.7893 22.7676 13.4142C23.1036 13.0391 23.2923 12.5304 23.2923 12V4C23.2923 3.46957 23.1036 2.96086 22.7676 2.58579C22.4316 2.21072 21.9758 2 21.5007 2ZM21.5007 17.824C21.0255 17.824 20.5698 18.0347 20.2338 18.4098C19.8978 18.7849 19.709 19.2936 19.709 19.824V28.176C19.709 28.7064 19.8978 29.2151 20.2338 29.5902C20.5698 29.9653 21.0255 30.176 21.5007 30.176C21.9758 30.176 22.4316 29.9653 22.7676 29.5902C23.1036 29.2151 23.2923 28.7064 23.2923 28.176V19.824C23.2923 19.2936 23.1036 18.7849 22.7676 18.4098C22.4316 18.0347 21.9758 17.824 21.5007 17.824ZM21.5007 34C21.0255 34 20.5698 34.2107 20.2338 34.5858C19.8978 34.9609 19.709 35.4696 19.709 36V44C19.709 44.5304 19.8978 45.0391 20.2338 45.4142C20.5698 45.7893 21.0255 46 21.5007 46C21.9758 46 22.4316 45.7893 22.7676 45.4142C23.1036 45.0391 23.2923 44.5304 23.2923 44V36C23.2923 35.4696 23.1036 34.9609 22.7676 34.5858C22.4316 34.2107 21.9758 34 21.5007 34Z" fill="black"/>
</svg>
