<svg width="47" height="42" viewBox="0 0 47 42" fill="none" xmlns="http://www.w3.org/2000/svg">
<path d="M13.2462 41.9838C17.1047 42.1136 20.9499 41.4642 24.5546 40.0739C28.1593 38.6836 31.4504 36.5807 34.2333 33.8893C37.0161 31.198 39.2344 27.9728 40.7569 24.4046C42.2794 20.8363 43.0754 16.9972 43.0976 13.1143C44.8659 10.9134 46.1789 8.37923 46.9595 5.6607C47.0178 5.44592 47.0131 5.21877 46.946 5.00661C46.8789 4.79445 46.7522 4.60632 46.5812 4.46489C46.4103 4.32345 46.2023 4.23474 45.9824 4.20942C45.7625 4.18411 45.54 4.22328 45.3417 4.32221C44.4166 4.77009 43.3751 4.91476 42.364 4.73584C41.3528 4.55693 40.423 4.06344 39.7054 3.3249C38.7894 2.31598 37.6813 1.50226 36.4469 0.931953C35.2125 0.361641 33.8768 0.046341 32.519 0.00473499C31.1612 -0.036871 29.809 0.196064 28.5423 0.689737C27.2757 1.18341 26.1204 1.92778 25.145 2.87873C23.8095 4.17959 22.8313 5.80581 22.3055 7.59935C21.7797 9.39289 21.7241 11.2927 22.1442 13.1143C13.4028 13.6392 7.40121 9.46622 2.59994 3.74482C2.4557 3.58053 2.26702 3.46204 2.05693 3.40382C1.84685 3.34559 1.62445 3.35016 1.41691 3.41696C1.20936 3.48376 1.02565 3.6099 0.888197 3.77998C0.750747 3.95005 0.665511 4.15671 0.642899 4.3747C-0.271771 9.47783 0.388038 14.7403 2.53371 19.4552C4.67938 24.1702 8.20815 28.1119 12.6461 30.7509C9.67043 34.1833 5.49168 36.3271 0.982119 36.7348C0.740522 36.7751 0.517496 36.8903 0.344258 37.0644C0.17102 37.2385 0.0562385 37.4627 0.0159777 37.7057C-0.0242832 37.9487 0.0119919 38.1982 0.119726 38.4194C0.22746 38.6406 0.401261 38.8224 0.616805 38.9393C4.54007 40.9113 8.86046 41.9528 13.2462 41.9838" fill="white"/>
</svg>
